# xmcd
#
# Track frame offsets: 
#        150
#        13201
#        26123
#        46438
#        60376
#        72449
#        91185
#        105754
#        121089
#        137839
#        171894
#
# Disc length: 2633 seconds
#
# Revision: 0
# Processed by: cddbd v1.5.2PL0 Copyright (c) Steve Scherf et al.
# Submitted via: ExactAudioCopyFreeDBPlugin 1.0
#
DISCID=8c0a470b
DTITLE=The Dirty Mojo Blues Band - Made Cents at the Time
DYEAR=2017
DGENRE=Blues
TTITLE0=Thin Ice
TTITLE1=Too much alcohol
TTITLE2=That's alright
TTITLE3=Morrow county jail
TTITLE4=Made cents at the time
TTITLE5=Honey bee
TTITLE6=Go ahead
TTITLE7=When you smile
TTITLE8=Broken strangs
TTITLE9=Papa Bear
TTITLE10=I gots this
EXTD=
EXTT0=
EXTT1=
EXTT2=
EXTT3=
EXTT4=
EXTT5=
EXTT6=
EXTT7=
EXTT8=
EXTT9=
EXTT10=
PLAYORDER=
